<?xml version="1.0" encoding="UTF-8"?>
<!DOCTYPE svg PUBLIC "-//W3C//DTD SVG 1.1//EN" "http://www.w3.org/Graphics/SVG/1.1/DTD/svg11.dtd">
<svg xmlns="http://www.w3.org/2000/svg" version="1.1" width="301px" height="301px" style="shape-rendering:geometricPrecision; text-rendering:geometricPrecision; image-rendering:optimizeQuality; fill-rule:evenodd; clip-rule:evenodd" xmlns:xlink="http://www.w3.org/1999/xlink">
<g><path style="opacity:0.966" fill="#bd902b" d="M 300.5,131.5 C 300.5,144.167 300.5,156.833 300.5,169.5C 286.615,242.385 243.281,286.052 170.5,300.5C 157.5,300.5 144.5,300.5 131.5,300.5C 73.5467,290.725 33.0467,258.725 10,204.5C -10.5257,141.109 2.64101,85.9423 49.5,39C 97.4647,-0.788492 150.798,-9.78849 209.5,12C 260.736,35.9966 291.07,75.8299 300.5,131.5 Z M 138.5,5.5 C 205.747,3.68726 254.247,32.6873 284,92.5C 305.389,147.448 298.055,198.114 262,244.5C 216.125,293.344 161.292,307.177 97.5,286C 43.8049,262.62 13.3049,221.787 6,163.5C 3.29093,102.409 27.7909,55.9087 79.5,24C 98.0843,13.945 117.751,7.77831 138.5,5.5 Z"/></g>
<g><path style="opacity:0.993" fill="#bd902b" d="M 145.5,30.5 C 147.255,31.0722 148.922,31.9055 150.5,33C 179.715,60.5159 209.215,87.6826 239,114.5C 244.396,131.209 238.896,142.709 222.5,149C 210.927,151.809 201.427,148.642 194,139.5C 178.076,103.981 162.409,68.3144 147,32.5C 133.804,65.0872 120.804,97.7538 108,130.5C 99.7574,147.025 87.2574,151.192 70.5,143C 59.9499,134.54 57.7833,124.373 64,112.5C 91.3682,85.2987 118.535,57.9653 145.5,30.5 Z"/></g>
<g><path style="opacity:0.867" fill="#103529" d="M 148.5,50.5 C 146.588,53.6814 144.755,57.0147 143,60.5C 131.012,90.776 118.846,120.776 106.5,150.5C 105.427,149.749 105.26,148.749 106,147.5C 119.408,113.69 133.075,80.0232 147,46.5C 147.791,47.745 148.291,49.0783 148.5,50.5 Z"/></g>
<g><path style="opacity:0.998" fill="#2e442c" d="M 154.5,65.5 C 154.5,65.8333 154.5,66.1667 154.5,66.5C 142.228,96.1538 130.062,125.821 118,155.5C 117.502,157.544 116.335,158.878 114.5,159.5C 126.444,128.395 138.611,98.0614 151,68.5C 152.039,67.2899 153.206,66.2899 154.5,65.5 Z"/></g>
<g><path style="opacity:0.99" fill="#35482c" d="M 154.5,66.5 C 155.674,67.5137 156.34,68.847 156.5,70.5C 143.038,101.102 130.371,132.102 118.5,163.5C 116.833,162.5 115.5,161.167 114.5,159.5C 116.335,158.878 117.502,157.544 118,155.5C 130.062,125.821 142.228,96.1538 154.5,66.5 Z"/></g>
<g><path style="opacity:0.998" fill="#1b3b2a" d="M 149.5,53.5 C 150.404,54.209 150.737,55.209 150.5,56.5C 137.72,89.394 124.386,122.061 110.5,154.5C 109.5,154.167 108.833,153.5 108.5,152.5C 121.602,119.175 135.269,86.1748 149.5,53.5 Z"/></g>
<g><path style="opacity:0.991" fill="#3b4b2d" d="M 156.5,70.5 C 157.11,71.391 157.443,72.391 157.5,73.5C 144.931,103.447 132.265,133.781 119.5,164.5C 118.833,164.5 118.5,164.167 118.5,163.5C 130.371,132.102 143.038,101.102 156.5,70.5 Z"/></g>
<g><path style="opacity:0.99" fill="#414e2d" d="M 157.5,73.5 C 158.404,74.209 158.737,75.209 158.5,76.5C 145.964,106.782 133.63,137.115 121.5,167.5C 121.167,167.5 120.833,167.5 120.5,167.5C 120.443,166.391 120.11,165.391 119.5,164.5C 132.265,133.781 144.931,103.447 157.5,73.5 Z"/></g>
<g><path style="opacity:0.994" fill="#4d542e" d="M 160.5,80.5 C 161.167,81.8333 161.833,83.1667 162.5,84.5C 159.832,87.979 157.499,91.8123 155.5,96C 155.833,96.3333 156.167,96.6667 156.5,97C 148.281,115.654 140.447,134.488 133,153.5C 130.618,159.537 127.785,165.203 124.5,170.5C 123.833,170.5 123.5,170.167 123.5,169.5C 130.678,151.149 137.844,132.815 145,114.5C 149.705,102.854 154.872,91.5207 160.5,80.5 Z"/></g>
<g><path style="opacity:0.999" fill="#47512d" d="M 158.5,76.5 C 159.674,77.5137 160.34,78.847 160.5,80.5C 154.872,91.5207 149.705,102.854 145,114.5C 137.844,132.815 130.678,151.149 123.5,169.5C 122.833,169.167 122.167,168.833 121.5,168.5C 121.5,168.167 121.5,167.833 121.5,167.5C 133.63,137.115 145.964,106.782 158.5,76.5 Z"/></g>
<g><path style="opacity:0.992" fill="#5a5a2f" d="M 162.5,86.5 C 163.338,86.8417 163.672,87.5084 163.5,88.5C 160.966,96.5755 158.133,104.576 155,112.5C 146.426,133.311 137.592,153.978 128.5,174.5C 127.5,174.167 126.833,173.5 126.5,172.5C 139.083,144.085 151.083,115.419 162.5,86.5 Z"/></g>
<g><path style="opacity:0.99" fill="#67602f" d="M 165.5,93.5 C 166.537,94.9303 167.204,96.597 167.5,98.5C 166.115,99.5736 164.949,100.907 164,102.5C 154.055,128.39 143.555,154.056 132.5,179.5C 131.094,179.027 130.427,178.027 130.5,176.5C 141.994,148.661 153.661,120.994 165.5,93.5 Z"/></g>
<g><path style="opacity:0.989" fill="#736630" d="M 168.5,100.5 C 169.11,101.391 169.443,102.391 169.5,103.5C 158.128,129.934 147.128,156.601 136.5,183.5C 135.167,182.833 134.167,181.833 133.5,180.5C 134.497,180.53 135.164,180.03 135.5,179C 146.038,152.529 157.038,126.363 168.5,100.5 Z"/></g>
<g><path style="opacity:0.999" fill="#28422b" d="M 152.5,60.5 C 153.441,62.0495 154.107,63.7162 154.5,65.5C 153.206,66.2899 152.039,67.2899 151,68.5C 138.611,98.0614 126.444,128.395 114.5,159.5C 113.167,158.833 112.167,157.833 111.5,156.5C 113.97,151.561 116.47,146.561 119,141.5C 129.122,113.944 140.288,86.9439 152.5,60.5 Z"/></g>
<g><path style="opacity:0.998" fill="#223f2b" d="M 150.5,56.5 C 151.674,57.5137 152.34,58.847 152.5,60.5C 140.288,86.9439 129.122,113.944 119,141.5C 116.47,146.561 113.97,151.561 111.5,156.5C 110.662,156.158 110.328,155.492 110.5,154.5C 124.386,122.061 137.72,89.394 150.5,56.5 Z"/></g>
<g><path style="opacity:0.999" fill="#15382a" d="M 148.5,50.5 C 149.11,51.391 149.443,52.391 149.5,53.5C 135.269,86.1748 121.602,119.175 108.5,152.5C 107.5,152.167 106.833,151.5 106.5,150.5C 118.846,120.776 131.012,90.776 143,60.5C 144.755,57.0147 146.588,53.6814 148.5,50.5 Z"/></g>
<g><path style="opacity:0.99" fill="#8c7232" d="M 173.5,113.5 C 174.345,114.671 175.011,116.005 175.5,117.5C 173.554,119.353 172.054,121.686 171,124.5C 161.965,146.985 152.799,169.319 143.5,191.5C 142.833,191.5 142.5,191.167 142.5,190.5C 152.022,164.463 162.355,138.796 173.5,113.5 Z"/></g>
<g><path style="opacity:0.998" fill="#54572e" d="M 162.5,84.5 C 162.5,85.1667 162.5,85.8333 162.5,86.5C 151.083,115.419 139.083,144.085 126.5,172.5C 125.5,172.167 124.833,171.5 124.5,170.5C 127.785,165.203 130.618,159.537 133,153.5C 140.447,134.488 148.281,115.654 156.5,97C 156.167,96.6667 155.833,96.3333 155.5,96C 157.499,91.8123 159.832,87.979 162.5,84.5 Z"/></g>
<g><path style="opacity:0.999" fill="#866f32" d="M 172.5,110.5 C 173.11,111.391 173.443,112.391 173.5,113.5C 162.355,138.796 152.022,164.463 142.5,190.5C 141.026,189.564 140.026,188.23 139.5,186.5C 141.097,185.263 142.263,183.596 143,181.5C 152.377,156.962 162.211,133.295 172.5,110.5 Z"/></g>
<g><path style="opacity:0.991" fill="#927533" d="M 175.5,117.5 C 175.833,118.167 176.167,118.833 176.5,119.5C 165.768,144.038 155.435,168.705 145.5,193.5C 144.5,193.167 143.833,192.5 143.5,191.5C 152.799,169.319 161.965,146.985 171,124.5C 172.054,121.686 173.554,119.353 175.5,117.5 Z"/></g>
<g><path style="opacity:0.986" fill="#997833" d="M 176.5,119.5 C 176.833,120.833 177.167,122.167 177.5,123.5C 168.04,146.025 159.04,168.358 150.5,190.5C 149.877,193.854 148.21,194.854 145.5,193.5C 155.435,168.705 165.768,144.038 176.5,119.5 Z"/></g>
<g><path style="opacity:0.999" fill="#605d2f" d="M 163.5,88.5 C 164.537,89.9303 165.204,91.597 165.5,93.5C 153.661,120.994 141.994,148.661 130.5,176.5C 129.5,176.167 128.833,175.5 128.5,174.5C 137.592,153.978 146.426,133.311 155,112.5C 158.133,104.576 160.966,96.5755 163.5,88.5 Z"/></g>
<g><path style="opacity:0.999" fill="#6d6330" d="M 167.5,98.5 C 168.338,98.8417 168.672,99.5084 168.5,100.5C 157.038,126.363 146.038,152.529 135.5,179C 135.164,180.03 134.497,180.53 133.5,180.5C 132.833,180.5 132.5,180.167 132.5,179.5C 143.555,154.056 154.055,128.39 164,102.5C 164.949,100.907 166.115,99.5736 167.5,98.5 Z"/></g>
<g><path style="opacity:0.984" fill="#9f7c33" d="M 177.5,123.5 C 178.345,124.671 179.011,126.005 179.5,127.5C 177.864,128.749 176.697,130.416 176,132.5C 172.665,140.512 169.332,148.512 166,156.5C 162.192,166.094 158.692,175.76 155.5,185.5C 154.167,187.5 152.5,189.167 150.5,190.5C 159.04,168.358 168.04,146.025 177.5,123.5 Z"/></g>
<g><path style="opacity:0.982" fill="#a57f34" d="M 179.5,127.5 C 180.11,128.391 180.443,129.391 180.5,130.5C 173.428,146.494 166.428,162.66 159.5,179C 159.728,179.399 160.062,179.565 160.5,179.5C 159.557,182.109 157.89,184.109 155.5,185.5C 158.692,175.76 162.192,166.094 166,156.5C 169.332,148.512 172.665,140.512 176,132.5C 176.697,130.416 177.864,128.749 179.5,127.5 Z"/></g>
<g><path style="opacity:0.976" fill="#ab8234" d="M 180.5,130.5 C 181.11,131.391 181.443,132.391 181.5,133.5C 174.981,147.065 169.314,161.065 164.5,175.5C 163.5,177.167 162.167,178.5 160.5,179.5C 160.062,179.565 159.728,179.399 159.5,179C 166.428,162.66 173.428,146.494 180.5,130.5 Z"/></g>
<g><path style="opacity:0.971" fill="#b18535" d="M 181.5,133.5 C 182.345,134.671 183.011,136.005 183.5,137.5C 178.569,147.421 173.902,157.587 169.5,168C 169.728,168.399 170.062,168.565 170.5,168.5C 169.219,171.447 167.219,173.781 164.5,175.5C 169.314,161.065 174.981,147.065 181.5,133.5 Z"/></g>
<g><path style="opacity:0.969" fill="#b88835" d="M 183.5,137.5 C 184.234,138.708 184.567,140.041 184.5,141.5C 180.752,148.832 177.085,156.332 173.5,164C 173.728,164.399 174.062,164.565 174.5,164.5C 173.5,166.167 172.167,167.5 170.5,168.5C 170.062,168.565 169.728,168.399 169.5,168C 173.902,157.587 178.569,147.421 183.5,137.5 Z"/></g>
<g><path style="opacity:0.999" fill="#796931" d="M 169.5,103.5 C 170.404,104.209 170.737,105.209 170.5,106.5C 159.214,132.144 148.547,158.477 138.5,185.5C 137.5,185.167 136.833,184.5 136.5,183.5C 147.128,156.601 158.128,129.934 169.5,103.5 Z"/></g>
<g><path style="opacity:0.948" fill="#be8b36" d="M 184.5,141.5 C 185.338,141.842 185.672,142.508 185.5,143.5C 183.522,147.731 181.522,152.064 179.5,156.5C 179.624,157.107 179.957,157.44 180.5,157.5C 179.219,160.447 177.219,162.781 174.5,164.5C 174.062,164.565 173.728,164.399 173.5,164C 177.085,156.332 180.752,148.832 184.5,141.5 Z"/></g>
<g><path style="opacity:0.886" fill="#c58e36" d="M 185.5,143.5 C 186.481,145.396 187.481,147.396 188.5,149.5C 186.146,152.521 183.479,155.188 180.5,157.5C 179.957,157.44 179.624,157.107 179.5,156.5C 181.522,152.064 183.522,147.731 185.5,143.5 Z"/></g>
<g><path style="opacity:0.989" fill="#283430" d="M 120.5,167.5 C 120.5,168.167 120.833,168.5 121.5,168.5C 129.378,179.891 137.878,190.891 147,201.5C 157.041,190.461 166.708,179.127 176,167.5C 192.817,150.548 210.984,149.048 230.5,163C 241.723,176.076 244.557,190.909 239,207.5C 235.257,218.576 229.091,228.076 220.5,236C 207.445,245.531 193.445,253.531 178.5,260C 152.007,268.168 126.674,265.501 102.5,252C 95.1667,247 87.8333,242 80.5,237C 61.5804,219.489 56.4138,198.656 65,174.5C 75.9956,159.279 90.4956,154.446 108.5,160C 112.696,162.261 116.696,164.761 120.5,167.5 Z"/></g>
<g><path style="opacity:1" fill="#7f6c31" d="M 170.5,106.5 C 171.674,107.514 172.34,108.847 172.5,110.5C 162.211,133.295 152.377,156.962 143,181.5C 142.263,183.596 141.097,185.263 139.5,186.5C 138.833,186.5 138.5,186.167 138.5,185.5C 148.547,158.477 159.214,132.144 170.5,106.5 Z"/></g>
</svg>
