<?xml version="1.0" encoding="UTF-8"?>
<!DOCTYPE svg PUBLIC "-//W3C//DTD SVG 1.1//EN" "http://www.w3.org/Graphics/SVG/1.1/DTD/svg11.dtd">
<svg xmlns="http://www.w3.org/2000/svg" version="1.1" width="753px" height="77px" style="shape-rendering:geometricPrecision; text-rendering:geometricPrecision; image-rendering:optimizeQuality; fill-rule:evenodd; clip-rule:evenodd" xmlns:xlink="http://www.w3.org/1999/xlink">
<g><path style="opacity:0.898" fill="#283430" d="M 2.5,0.5 C 22.5028,0.33338 42.5028,0.500046 62.5,1C 64.0586,3.64167 63.7253,5.975 61.5,8C 53.1733,8.49973 44.84,8.6664 36.5,8.5C 36.6666,30.5025 36.5,52.5025 36,74.5C 33.3583,76.0586 31.025,75.7253 29,73.5C 28.5,51.8359 28.3334,30.1692 28.5,8.5C 20.16,8.6664 11.8267,8.49973 3.5,8C 1.16325,5.80634 0.829913,3.30634 2.5,0.5 Z"/></g>
<g><path style="opacity:0.912" fill="#283430" d="M 127.5,76.5 C 125.833,76.5 124.167,76.5 122.5,76.5C 116.553,66.1094 110.22,55.9427 103.5,46C 97.1754,45.5005 90.8421,45.3338 84.5,45.5C 84.6665,55.1724 84.4998,64.8391 84,74.5C 81.3583,76.0586 79.025,75.7253 77,73.5C 76.1769,49.4572 76.3436,25.4572 77.5,1.5C 89.8198,0.334062 102.153,0.167396 114.5,1C 120.501,2.3356 124.668,5.8356 127,11.5C 129.491,20.4515 128.824,29.1182 125,37.5C 121.835,41.666 117.668,44.166 112.5,45C 118.125,53.7494 123.625,62.5827 129,71.5C 129.613,73.4952 129.113,75.1619 127.5,76.5 Z M 84.5,8.5 C 94.1724,8.33353 103.839,8.5002 113.5,9C 118.566,12.0011 120.899,16.5011 120.5,22.5C 120.393,25.567 119.893,28.567 119,31.5C 118.167,33.6667 116.667,35.1667 114.5,36C 104.566,37.3952 94.5657,37.8952 84.5,37.5C 84.5,27.8333 84.5,18.1667 84.5,8.5 Z"/></g>
<g><path style="opacity:0.915" fill="#283430" d="M 168.5,0.5 C 171.044,0.104326 173.211,0.770993 175,2.5C 185.109,25.7181 194.942,49.0514 204.5,72.5C 202.912,75.2571 200.579,76.0904 197.5,75C 194.554,69.345 191.888,63.5117 189.5,57.5C 177.185,56.501 164.851,56.1676 152.5,56.5C 150.741,62.6909 148.408,68.6909 145.5,74.5C 139.976,76.9142 137.809,75.2476 139,69.5C 148.315,46.212 158.148,23.212 168.5,0.5 Z M 170.5,13.5 C 175.476,24.732 180.476,36.0653 185.5,47.5C 175.833,48.8333 166.167,48.8333 156.5,47.5C 161.732,36.3735 166.399,25.0402 170.5,13.5 Z"/></g>
<g><path style="opacity:0.906" fill="#283430" d="M 218.5,0.5 C 231.837,0.333437 245.171,0.500104 258.5,1C 269.121,3.28756 275.288,9.78756 277,20.5C 277.667,32.1667 277.667,43.8333 277,55.5C 275.643,66.0634 269.81,72.5634 259.5,75C 245.821,75.8327 232.154,75.6661 218.5,74.5C 217.176,49.8334 217.176,25.1667 218.5,0.5 Z M 225.5,8.5 C 236.172,8.3335 246.839,8.50016 257.5,9C 264.455,10.2887 268.289,14.4554 269,21.5C 269.667,32.5 269.667,43.5 269,54.5C 268.251,61.5803 264.417,65.747 257.5,67C 246.839,67.4998 236.172,67.6665 225.5,67.5C 225.5,47.8333 225.5,28.1667 225.5,8.5 Z"/></g>
<g><path style="opacity:0.899" fill="#283530" d="M 298.5,0.5 C 314.514,0.167245 330.514,0.500578 346.5,1.5C 348.007,3.96865 347.673,6.13531 345.5,8C 332.171,8.4999 318.837,8.66656 305.5,8.5C 305.5,16.8333 305.5,25.1667 305.5,33.5C 314.173,33.3336 322.84,33.5002 331.5,34C 333.725,36.025 334.059,38.3583 332.5,41C 323.506,41.4998 314.506,41.6664 305.5,41.5C 305.5,50.1667 305.5,58.8333 305.5,67.5C 318.504,67.3334 331.504,67.5001 344.5,68C 347.293,69.5449 347.96,71.7116 346.5,74.5C 330.18,75.4994 313.847,75.8328 297.5,75.5C 296.363,51.5303 296.196,27.5303 297,3.5C 297.513,2.47344 298.013,1.47344 298.5,0.5 Z"/></g>
<g><path style="opacity:0.906" fill="#283430" d="M 375.5,0.5 C 385.839,0.333507 396.172,0.500173 406.5,1C 415.853,4.20235 419.687,10.7024 418,20.5C 415.408,21.9817 413.075,21.6483 411,19.5C 410.967,14.5866 408.8,11.0866 404.5,9C 395.5,8.33333 386.5,8.33333 377.5,9C 374.943,9.68532 373.109,11.1853 372,13.5C 371.333,18.1667 371.333,22.8333 372,27.5C 372.465,28.9308 373.299,30.0975 374.5,31C 385.437,32.1387 396.437,33.1387 407.5,34C 416.716,37.5722 421.049,44.4056 420.5,54.5C 421.019,63.5096 417.352,70.0096 409.5,74C 397.571,75.6038 385.571,75.9371 373.5,75C 364.417,71.6707 360.251,65.1707 361,55.5C 363.075,53.3517 365.408,53.0183 368,54.5C 368.692,57.9364 369.692,61.2698 371,64.5C 372.419,65.4601 373.919,66.2935 375.5,67C 385.5,67.6667 395.5,67.6667 405.5,67C 410.283,64.2717 412.617,60.105 412.5,54.5C 411.923,51.0344 410.923,47.7011 409.5,44.5C 408.335,43.4164 407.002,42.5831 405.5,42C 395.13,41.8042 384.796,41.1375 374.5,40C 369,38.5 365.5,35 364,29.5C 361.946,21.0472 363.112,13.0472 367.5,5.5C 369.928,3.29459 372.595,1.62792 375.5,0.5 Z"/></g>
<g><path style="opacity:0.909" fill="#283430" d="M 440.5,0.5 C 442.792,0.243582 444.959,0.576916 447,1.5C 447.5,12.1615 447.667,22.8281 447.5,33.5C 463.167,33.5 478.833,33.5 494.5,33.5C 494.333,22.8281 494.5,12.1615 495,1.5C 497.592,0.0183225 499.925,0.351656 502,2.5C 502.667,26.1667 502.667,49.8333 502,73.5C 499.925,75.6483 497.592,75.9817 495,74.5C 494.5,63.505 494.333,52.505 494.5,41.5C 478.833,41.5 463.167,41.5 447.5,41.5C 447.667,52.505 447.5,63.505 447,74.5C 444.667,75.8333 442.333,75.8333 440,74.5C 439.186,49.7907 439.353,25.1241 440.5,0.5 Z"/></g>
<g><path style="opacity:0.913" fill="#283430" d="M 574.5,76.5 C 572.833,76.5 571.167,76.5 569.5,76.5C 563.052,66.4453 556.719,56.2787 550.5,46C 544.175,45.5005 537.842,45.3338 531.5,45.5C 531.666,55.1724 531.5,64.8391 531,74.5C 528.667,75.8333 526.333,75.8333 524,74.5C 523.333,50.1667 523.333,25.8333 524,1.5C 536.424,0.345233 548.924,0.178566 561.5,1C 567.9,2.39939 572.066,6.23272 574,12.5C 576.251,21.0721 575.585,29.4055 572,37.5C 568.835,41.666 564.668,44.166 559.5,45C 565.431,54.1995 571.098,63.5328 576.5,73C 575.695,74.1127 575.028,75.2794 574.5,76.5 Z M 531.5,8.5 C 541.912,8.07381 552.246,8.57381 562.5,10C 565.95,13.3989 567.283,17.5655 566.5,22.5C 567.559,28.1137 565.892,32.6137 561.5,36C 551.566,37.3952 541.566,37.8952 531.5,37.5C 531.5,27.8333 531.5,18.1667 531.5,8.5 Z"/></g>
<g><path style="opacity:0.902" fill="#283430" d="M 593.5,0.5 C 595.792,0.243582 597.959,0.576916 600,1.5C 600.667,25.8333 600.667,50.1667 600,74.5C 597.667,75.8333 595.333,75.8333 593,74.5C 592.177,49.761 592.344,25.0943 593.5,0.5 Z"/></g>
<g><path style="opacity:0.912" fill="#283430" d="M 622.5,0.5 C 625.97,-0.125166 628.804,0.874834 631,3.5C 645.333,22.1667 659.667,40.8333 674,59.5C 674.333,40.5 674.667,21.5 675,2.5C 677.025,0.274712 679.358,-0.0586209 682,1.5C 682.827,26.0724 682.661,50.5724 681.5,75C 677.328,75.8684 674.162,74.3684 672,70.5C 658,52.5 644,34.5 630,16.5C 629.667,35.8333 629.333,55.1667 629,74.5C 626.861,75.7691 624.695,75.7691 622.5,74.5C 621.176,49.8334 621.176,25.1667 622.5,0.5 Z"/></g>
<g><path style="opacity:0.915" fill="#283430" d="M 752.5,0.5 C 752.5,3.16667 752.5,5.83333 752.5,8.5C 739.167,8.5 725.833,8.5 712.5,8.5C 712.5,16.8333 712.5,25.1667 712.5,33.5C 721.506,33.3336 730.506,33.5002 739.5,34C 740.833,36.3333 740.833,38.6667 739.5,41C 730.506,41.4998 721.506,41.6664 712.5,41.5C 712.5,50.1667 712.5,58.8333 712.5,67.5C 725.913,67.1858 739.246,67.5192 752.5,68.5C 752.5,70.8333 752.5,73.1667 752.5,75.5C 736.83,75.6666 721.163,75.4999 705.5,75C 704.838,62.7402 704.505,50.4068 704.5,38C 704.505,25.5932 704.838,13.2598 705.5,1C 721.163,0.500075 736.83,0.333409 752.5,0.5 Z"/></g>
</svg>
